<svg width="144" height="144" viewBox="0 0 120 120" fill="none" xmlns="http://www.w3.org/2000/svg">
  <!-- Background circle -->
  <circle cx="60" cy="60" r="56" fill="#4F46E5" stroke="#1E293B" stroke-width="2"/>
  
  <!-- Note/Paper -->
  <rect x="35" y="40" width="38" height="48" rx="4" fill="#F8FAFC" stroke="#1E293B" stroke-width="1.5"/>
  
  <!-- Note lines -->
  <line x1="40" y1="50" x2="68" y2="50" stroke="#CBD5E1" stroke-width="1"/>
  <line x1="40" y1="56" x2="65" y2="56" stroke="#CBD5E1" stroke-width="1"/>
  <line x1="40" y1="62" x2="68" y2="62" stroke="#CBD5E1" stroke-width="1"/>
  <line x1="40" y1="68" x2="62" y2="68" stroke="#CBD5E1" stroke-width="1"/>
  
  <!-- Wizard hat -->
  <path d="M74 35 L82 60 L66 60 Z" fill="#F59E0B" stroke="#1E293B" stroke-width="1.5"/>
  
  <!-- Hat brim -->
  <ellipse cx="74" cy="60" rx="10" ry="3" fill="#F59E0B" stroke="#1E293B" stroke-width="1.5"/>
  
  <!-- Magic stars -->
  <g fill="#F59E0B">
    <path d="M85 45 L86.5 47.5 L89 46 L87.5 48.5 L90 50 L87.5 49.5 L89 52 L86.5 50.5 L85 53 L86.5 50.5 L84 52 L85.5 49.5 L83 48 L85.5 48.5 L84 46 L86.5 47.5 Z"/>
    <circle cx="95" cy="35" r="1.5"/>
    <circle cx="88" cy="28" r="1"/>
  </g>
  
  <!-- Pen/Quill -->
  <path d="M78 65 L85 72 L83 74 L76 67 Z" fill="#1E293B"/>
  <circle cx="86" cy="73" r="1.5" fill="#F59E0B"/>
</svg>